<svg id="Layer_1" data-name="Layer 1" xmlns="http://www.w3.org/2000/svg" xmlns:xlink="http://www.w3.org/1999/xlink" viewBox="0 0 1920 3752"><defs><style>.cls-1{fill:none;}.cls-2{clip-path:url(#clip-path);}.cls-3{fill:#feffbf;}.cls-4{fill:#fff;}.cls-5{fill:#c183f5;}.cls-6{clip-path:url(#clip-path-2);}</style><clipPath id="clip-path"><rect class="cls-1" x="-1937.53" y="726" width="1917.77" height="3065.77"/></clipPath><clipPath id="clip-path-2"><rect class="cls-1" x="0.59" y="-724.02" width="1920.41" height="5003.75"/></clipPath></defs><g class="cls-2"><path class="cls-3" d="M-1633.22,1218.76l-319.63,176.46V710H18.2v430.83l-181.79,45.28L-788.2,826.55l-243.72,359.58Z"/><path class="cls-3" d="M-1440.78,1715.52l-520.72,67.25v839l944.23-412.19L-607.08,2484l727.16-181.79v-550.7l-400.2,31.3-125.19,192.44L-968,1873.33l-508.74,121.86Z"/><path class="cls-3" d="M-1663.85,3030h-329.62v761.78h2029V3234.42l-297-155.16-484.77-158.48-656.57,62.6,168.47,251Z"/><rect class="cls-1" x="-978.65" y="1100.23" width="1113.37" height="733.81"/></g><path class="cls-4" d="M39.09,1445.2a39.59,39.59,0,0,0-28.53-49,39.73,39.73,0,0,0-47.45,26.67,39.48,39.48,0,0,0,3.38,31.27c5.69,10,10.22,16.8,7.15,27.91L0,1489.36c3-11,10.15-14.56,20.12-20.07A39.41,39.41,0,0,0,39.09,1445.2Z"/><path d="M0,1490.25l-.24,0-26.31-7.28a.89.89,0,0,1-.62-1.09c2.78-10-.89-16.46-6-25.34l-1.09-1.9a40.13,40.13,0,0,1-3.46-32,40.26,40.26,0,0,1,18.86-23.25,40.25,40.25,0,0,1,29.66-4,40.2,40.2,0,0,1,25.14,18.89,40.21,40.21,0,0,1,4,31.17h0a40.2,40.2,0,0,1-19.45,24.64l-1,.55c-9.55,5.26-15.86,8.74-18.69,19a1,1,0,0,1-.42.54A1,1,0,0,1,0,1490.25Zm-25.23-8.79,24.62,6.82c3.16-10.32,10-14.07,19.3-19.21l1-.55A38.43,38.43,0,0,0,38.24,1445a38.42,38.42,0,0,0-3.86-29.8,38.39,38.39,0,0,0-24-18.07A38.68,38.68,0,0,0-36,1423.16a38.33,38.33,0,0,0,3.31,30.57c.36.65.72,1.28,1.08,1.9C-26.69,1464.3-22.75,1471.19-25.28,1481.46Z"/><path class="cls-5" d="M-30.25,1486.73l3.39-12.28,31.16,8.62L.9,1495.35A16.17,16.17,0,0,1-19,1506.62h0A16.17,16.17,0,0,1-30.25,1486.73Z"/><path d="M-12.11,1508.94a13.28,13.28,0,0,1-3.56-.49l-7.11-2a13.28,13.28,0,0,1-8.06-6.29,13.28,13.28,0,0,1-1.25-10.15h0l4.38-15.84a.89.89,0,0,1,1.09-.62l31.16,8.62a.88.88,0,0,1,.61,1.09L.77,1499.14A13.39,13.39,0,0,1-12.11,1508.94Zm-18.27-18.42h0a11.51,11.51,0,0,0,1.08,8.8,11.56,11.56,0,0,0,7,5.46l7.11,2a11.6,11.6,0,0,0,14.26-8.07l4.15-15-29.45-8.15Z"/><path d="M9.39,1451.1H9.31l-24-6.65a.3.3,0,0,1-.21-.36.3.3,0,0,1,.36-.21l24,6.65a.3.3,0,0,1-.08.58Z"/><path d="M15.75,1382l-.24,0a.88.88,0,0,1-.61-1.09L19,1366.07a.9.9,0,0,1,1.1-.62.88.88,0,0,1,.61,1.09l-4.08,14.77A.89.89,0,0,1,15.75,1382Z"/><path d="M53.25,1407.83a.87.87,0,0,1-.77-.45.89.89,0,0,1,.33-1.21l13.34-7.55a.88.88,0,1,1,.87,1.54l-13.33,7.55A.88.88,0,0,1,53.25,1407.83Z"/><path d="M73.35,1452.68a.66.66,0,0,1-.23,0l-14.77-4.08a.89.89,0,1,1,.47-1.71l14.77,4.08a.89.89,0,0,1-.24,1.75Z"/><path d="M-5.53,1480.47a.84.84,0,0,1-.27,0,.89.89,0,0,1-.57-1.12c.36-1.12,9.08-27.65,25.36-35.94a.89.89,0,0,1,.8,1.58c-15.62,8-24.38,34.64-24.47,34.91A.89.89,0,0,1-5.53,1480.47Z"/><path d="M19.48,1444.74l-.24,0a5.2,5.2,0,0,1-3.34-3c-.55-1-1-1.82-2.24-2.17a3.49,3.49,0,0,0-3.05.71,5.21,5.21,0,0,1-4.43.9,5.22,5.22,0,0,1-3.34-3c-.55-1-1-1.83-2.25-2.18a3.51,3.51,0,0,0-3,.71,5.2,5.2,0,0,1-4.43.9,5.18,5.18,0,0,1-3.34-3c-.55-1-1-1.82-2.25-2.17a3.46,3.46,0,0,0-3,.71,5.25,5.25,0,0,1-4.43.9.89.89,0,0,1-.62-1.09.88.88,0,0,1,1.09-.62,3.5,3.5,0,0,0,3.05-.72,5.21,5.21,0,0,1,4.43-.89,5.2,5.2,0,0,1,3.34,3c.55,1,1,1.82,2.25,2.17a3.53,3.53,0,0,0,3.05-.71,5.21,5.21,0,0,1,4.43-.9,5.22,5.22,0,0,1,3.34,3c.54,1,1,1.83,2.24,2.18a3.52,3.52,0,0,0,3-.71,5.18,5.18,0,0,1,4.43-.9,5.21,5.21,0,0,1,3.34,3c.54,1,1,1.83,2.24,2.18a.89.89,0,0,1-.23,1.74Z"/><path d="M138.24,1474.57a6.16,6.16,0,1,1,6.16-6.16A6.17,6.17,0,0,1,138.24,1474.57Zm0-10.55a4.39,4.39,0,1,0,4.38,4.39A4.4,4.4,0,0,0,138.24,1464Z"/><path d="M25.61,1591.15a.88.88,0,0,1-.34-1.7l22.21-9.26,4.09-24.74a.9.9,0,0,1,.84-.74l24.88-1.11,16.14-34.86a.88.88,0,0,1,1.17-.43.89.89,0,0,1,.44,1.18l-16.37,35.35a.89.89,0,0,1-.77.51l-24.7,1.1L49.15,1581a.87.87,0,0,1-.53.67L26,1591.08A.83.83,0,0,1,25.61,1591.15Z"/><g class="cls-6"><rect class="cls-4" x="0.59" y="-724.02" width="1920.41" height="5003.75"/><path class="cls-3" d="M-280.6,3323.52l-847.06,135.68V5151.91l1536-831.58,667.25,553.5,1182.85-366.76v-1111l-651,63.13-203.64,388.26-915.3-205.55-827.56,245.85Z"/><path class="cls-3" d="M291.31,2514l-320.06,176.7V2004.57H1945V2436l-182,45.34L1137.5,2121.26,893.44,2481.33Z"/><path class="cls-3" d="M498,266.86-23.42,334.2v840.19L922.12,761.63l410.75,274.73,728.16-182V302.86L1660.28,334.2,1534.92,526.91l-563.46-102L462,546.92Z"/><path class="cls-3" d="M274.64,1583.14H-55.43V2346l1248.94-283.39L1976.35,2346V1787.85L1679,1632.48l-485.44-158.7L536,1536.46l168.71,251.39Z"/><path class="cls-3" d="M1766.07,4079.29l412.05-62.68-183.94-1209.2L503.39,3493.79-542.2,3193.22l134.58,884.71L1.1,4267.75l644.27,159.38L1451,4202.92,1179.8,3836.47Z"/></g></svg>